<svg xmlns="http://www.w3.org/2000/svg" viewBox="0 0 44 44" width="44" height="44">
  <!-- SynaptaLogic Icon - Dense Neural Cluster (dark background version) -->
  <!-- Connections -->
  <line x1="12" y1="8" x2="20" y2="12" stroke="#3B82F6" stroke-width="0.9" opacity="0.7"/>
  <line x1="12" y1="8" x2="8" y2="16" stroke="#3B82F6" stroke-width="0.9" opacity="0.5"/>
  <line x1="20" y1="12" x2="28" y2="8" stroke="#3B82F6" stroke-width="0.9" opacity="0.7"/>
  <line x1="20" y1="12" x2="16" y2="20" stroke="#3B82F6" stroke-width="0.9" opacity="0.7"/>
  <line x1="20" y1="12" x2="26" y2="18" stroke="#3B82F6" stroke-width="0.9" opacity="0.7"/>
  <line x1="28" y1="8" x2="32" y2="14" stroke="#3B82F6" stroke-width="0.9" opacity="0.5"/>
  <line x1="28" y1="8" x2="26" y2="18" stroke="#3B82F6" stroke-width="0.9" opacity="0.6"/>
  <line x1="8" y1="16" x2="12" y2="24" stroke="#3B82F6" stroke-width="0.9" opacity="0.5"/>
  <line x1="8" y1="16" x2="16" y2="20" stroke="#3B82F6" stroke-width="0.9" opacity="0.6"/>
  <line x1="16" y1="20" x2="12" y2="24" stroke="#3B82F6" stroke-width="0.9" opacity="0.6"/>
  <line x1="16" y1="20" x2="22" y2="26" stroke="#3B82F6" stroke-width="0.9" opacity="0.7"/>
  <line x1="16" y1="20" x2="26" y2="18" stroke="#3B82F6" stroke-width="0.9" opacity="0.7"/>
  <line x1="26" y1="18" x2="32" y2="14" stroke="#3B82F6" stroke-width="0.9" opacity="0.6"/>
  <line x1="26" y1="18" x2="30" y2="24" stroke="#3B82F6" stroke-width="0.9" opacity="0.6"/>
  <line x1="26" y1="18" x2="22" y2="26" stroke="#3B82F6" stroke-width="0.9" opacity="0.7"/>
  <line x1="32" y1="14" x2="30" y2="24" stroke="#3B82F6" stroke-width="0.9" opacity="0.5"/>
  <line x1="12" y1="24" x2="16" y2="30" stroke="#3B82F6" stroke-width="0.9" opacity="0.5"/>
  <line x1="12" y1="24" x2="22" y2="26" stroke="#3B82F6" stroke-width="0.9" opacity="0.6"/>
  <line x1="22" y1="26" x2="30" y2="24" stroke="#3B82F6" stroke-width="0.9" opacity="0.6"/>
  <line x1="22" y1="26" x2="16" y2="30" stroke="#3B82F6" stroke-width="0.9" opacity="0.6"/>
  <line x1="22" y1="26" x2="26" y2="34" stroke="#3B82F6" stroke-width="0.9" opacity="0.5"/>
  <line x1="30" y1="24" x2="26" y2="34" stroke="#3B82F6" stroke-width="0.9" opacity="0.5"/>
  <line x1="16" y1="30" x2="20" y2="36" stroke="#3B82F6" stroke-width="0.9" opacity="0.5"/>
  <line x1="16" y1="30" x2="26" y2="34" stroke="#3B82F6" stroke-width="0.9" opacity="0.5"/>
  <line x1="26" y1="34" x2="20" y2="36" stroke="#3B82F6" stroke-width="0.9" opacity="0.5"/>
  <!-- Nodes - Bright blue + white for dark background visibility -->
  <circle cx="12" cy="8" r="2.2" fill="#3B82F6"/>
  <circle cx="20" cy="12" r="3.2" fill="#93C5FD"/>
  <circle cx="28" cy="8" r="2" fill="#3B82F6"/>
  <circle cx="8" cy="16" r="1.8" fill="#93C5FD"/>
  <circle cx="32" cy="14" r="1.5" fill="#3B82F6"/>
  <circle cx="16" cy="20" r="3" fill="#FFFFFF"/>
  <circle cx="26" cy="18" r="2.8" fill="#3B82F6"/>
  <circle cx="12" cy="24" r="2" fill="#3B82F6"/>
  <circle cx="30" cy="24" r="1.8" fill="#93C5FD"/>
  <circle cx="22" cy="26" r="3.2" fill="#FFFFFF"/>
  <circle cx="16" cy="30" r="2.2" fill="#3B82F6"/>
  <circle cx="26" cy="34" r="2" fill="#93C5FD"/>
  <circle cx="20" cy="36" r="1.5" fill="#3B82F6"/>
</svg>
